<svg xmlns="http://www.w3.org/2000/svg" xmlns:xlink="http://www.w3.org/1999/xlink" width="1040" zoomAndPan="magnify" viewBox="0 0 780 328.49999" height="438" preserveAspectRatio="xMidYMid meet" version="1.0"><defs><g/><clipPath id="5a38aeef13"><path d="M 0.59375 2 L 317 2 L 317 328 L 0.59375 328 Z M 0.59375 2 " clip-rule="nonzero"/></clipPath><clipPath id="77fbf1a2ac"><path d="M 0.59375 0 L 381 0 L 381 328 L 0.59375 328 Z M 0.59375 0 " clip-rule="nonzero"/></clipPath><clipPath id="9d68e90593"><path d="M 379 0 L 723 0 L 723 328 L 379 328 Z M 379 0 " clip-rule="nonzero"/></clipPath><clipPath id="ee1650ffdd"><path d="M 427 0 L 779.40625 0 L 779.40625 328 L 427 328 Z M 427 0 " clip-rule="nonzero"/></clipPath><clipPath id="81e1dd1ada"><path d="M 489 21 L 779.40625 21 L 779.40625 328 L 489 328 Z M 489 21 " clip-rule="nonzero"/></clipPath><clipPath id="4f804a2166"><path d="M 0.59375 0 L 313 0 L 313 328 L 0.59375 328 Z M 0.59375 0 " clip-rule="nonzero"/></clipPath><clipPath id="d44311e3e9"><path d="M 0.59375 0 L 377 0 L 377 328 L 0.59375 328 Z M 0.59375 0 " clip-rule="nonzero"/></clipPath><clipPath id="c1e981ac0e"><path d="M 375 0 L 719 0 L 719 328 L 375 328 Z M 375 0 " clip-rule="nonzero"/></clipPath><clipPath id="f28ab43bdf"><path d="M 423 0 L 779.40625 0 L 779.40625 328 L 423 328 Z M 423 0 " clip-rule="nonzero"/></clipPath><clipPath id="5474bbb604"><path d="M 484 14 L 779.40625 14 L 779.40625 328 L 484 328 Z M 484 14 " clip-rule="nonzero"/></clipPath></defs><g clip-path="url(#5a38aeef13)"><path stroke-linecap="butt" transform="matrix(0.659678, -0.471893, 0.471893, 0.659678, 32.972997, 164.576085)" fill="none" stroke-linejoin="miter" d="M 101.280287 156.276705 C 101.276956 158.648822 95.970914 159.833147 85.35936 159.833597 C 74.741086 159.835162 68.993056 158.980175 68.112468 157.272554 L 39.826568 104.458782 L 39.826303 157.106177 C 39.823203 159.146858 34.600135 160.165523 24.150381 160.163286 C 13.701743 160.167768 8.477859 159.14295 8.478157 157.106185 L 8.476992 43.792543 C 8.477602 42.111289 12.929062 41.269002 21.835288 41.268485 C 25.335523 41.267563 29.430665 41.585614 34.116798 42.219837 C 38.805189 42.826069 41.656869 43.971845 42.678558 45.65605 L 69.807667 97.843655 L 69.805505 44.661594 C 69.804203 42.511177 75.045226 41.4343 85.519054 41.435993 C 96.023675 41.436029 101.276637 42.511255 101.277939 44.661672 Z M 101.280287 156.276705 " stroke="#33a169" stroke-width="31.12578" stroke-opacity="1" stroke-miterlimit="4"/></g><g clip-path="url(#77fbf1a2ac)"><path stroke-linecap="butt" transform="matrix(0.735224, -0.342496, 0.342496, 0.735224, 118.806073, 105.088002)" fill="none" stroke-linejoin="miter" d="M 63.853441 44.826212 C 63.85336 42.568148 69.971271 41.433354 82.211839 41.43463 C 94.484702 41.435011 100.615791 42.564383 100.613839 44.826813 L 100.615511 122.572786 C 100.618113 134.097904 96.493886 143.498693 88.251563 150.779218 C 80.006908 158.053345 68.619266 161.69564 54.092704 161.697374 C 39.589706 161.694145 27.792617 157.946584 18.694739 150.446256 C 9.619828 142.919436 5.085451 132.773885 5.087242 120.00757 L 5.08801 44.993618 C 5.085597 42.729154 11.20584 41.60076 23.446408 41.602036 C 35.714905 41.600383 41.85036 42.731789 41.850441 44.989853 L 41.84886 121.374181 C 41.853306 123.63428 43.036665 125.439403 45.407667 126.793618 C 47.888352 128.140485 50.479723 128.816346 53.183815 128.816834 C 55.881507 128.819654 58.337869 128.200005 60.542137 126.958185 C 62.750769 125.718399 63.851913 123.856441 63.849934 121.374346 Z M 63.853441 44.826212 " stroke="#33a169" stroke-width="31.12578" stroke-opacity="1" stroke-miterlimit="4"/></g><path stroke-linecap="butt" transform="matrix(0.78124, -0.217995, 0.217995, 0.78124, 210.071418, 64.584214)" fill="none" stroke-linejoin="miter" d="M 59.469752 157.273261 C 59.469173 159.533127 53.874127 160.661934 42.678682 160.663025 C 31.513659 160.662604 25.929765 159.529494 25.930345 157.269627 L 25.930493 72.243601 L 5.584465 72.246369 C 3.679847 72.244916 2.328143 69.652712 1.529353 64.469757 C 1.201755 61.988315 1.034573 59.451634 1.032446 56.861008 C 1.033446 54.241254 1.199613 51.692588 1.53224 49.210371 C 2.328453 44.027477 3.681836 41.435084 5.581815 41.435243 L 79.278086 41.434004 C 81.207193 41.437291 82.558897 44.029494 83.328559 49.209321 C 83.691218 51.690546 83.869728 54.240389 83.868727 56.860142 C 83.866216 59.449474 83.687427 61.989618 83.330311 64.470002 C 82.558587 69.654729 81.206499 72.242483 79.276097 72.243836 L 59.4699 72.247234 Z M 59.469752 157.273261 " stroke="#33a169" stroke-width="31.12578" stroke-opacity="1" stroke-miterlimit="4"/><path stroke-linecap="butt" transform="matrix(0.805839, -0.0920976, 0.0920976, 0.805839, 289.354587, 43.049465)" fill="none" stroke-linejoin="miter" d="M 40.817831 157.641915 C 40.81646 159.435309 35.454734 160.33008 24.732105 160.331014 C 13.893544 160.328393 8.477683 159.491292 8.476046 157.809045 L 8.477375 47.350736 C 8.477521 43.404942 10.558971 41.437245 14.723369 41.433289 L 47.10398 41.435409 C 76.794502 41.435472 91.643634 53.001922 91.641807 76.133665 C 91.641655 83.133341 90.280396 89.487868 87.54846 95.196153 C 84.84578 100.902934 81.014951 105.453126 76.051189 108.846181 L 97.392333 144.407726 C 96.482369 147.110392 93.544276 150.211434 88.582291 153.716183 C 81.800797 158.593248 76.204469 161.031775 71.793306 161.031766 C 67.410852 161.035038 64.140694 159.44944 61.992402 156.276066 L 46.071362 119.181713 L 40.816683 119.182249 Z M 40.817606 71.415747 L 40.818782 96.811584 L 41.686769 96.808988 C 52.409398 96.808054 57.77537 92.355752 57.775116 83.450988 C 57.771433 79.369029 56.72518 76.350689 54.63157 74.395424 C 52.536456 72.410902 49.11605 71.418909 44.375136 71.419993 Z M 40.817606 71.415747 " stroke="#33a169" stroke-width="31.12578" stroke-opacity="1" stroke-miterlimit="4"/><path stroke-linecap="butt" transform="matrix(0.810617, 0.027526, -0.027526, 0.810617, 382.200429, 34.170389)" fill="none" stroke-linejoin="miter" d="M 19.645134 130.846208 L 19.645603 70.547818 L 7.608067 70.546972 C 5.704685 70.54896 4.354938 68.122719 3.558825 63.268249 C 3.227791 60.898974 3.058612 58.471195 3.06124 55.994213 C 3.058892 53.51258 3.226972 51.082987 3.556178 48.715387 C 4.355068 43.859763 5.708692 41.433282 7.607424 41.436271 L 64.556642 41.434815 C 66.45521 41.432991 67.752011 43.86103 68.442068 48.714282 C 68.883971 51.084611 69.106097 53.510592 69.103632 55.992388 C 69.10598 58.47402 68.884791 60.900598 68.444878 63.271958 C 67.751881 68.123986 66.456016 70.548505 64.557448 70.55033 L 53.184965 70.550995 L 53.184332 130.844572 L 65.05324 130.846325 C 66.951808 130.844501 68.306859 133.285018 69.10379 138.163555 C 69.574736 140.537716 69.806488 142.96337 69.808836 145.445003 C 69.806208 147.921985 69.570579 150.349053 69.101786 152.721394 C 68.302733 157.572204 66.953922 159.998522 65.05054 160.000509 L 7.980826 160.001238 C 6.053215 159.99923 4.741974 157.571681 4.05208 152.723242 C 3.610177 150.352913 3.392701 147.921955 3.390517 145.445136 C 3.392982 142.96334 3.609358 140.536926 4.054084 138.165403 C 4.741287 133.284658 6.051101 130.845209 7.983526 130.847054 Z M 19.645134 130.846208 " stroke="#33a169" stroke-width="31.12578" stroke-opacity="1" stroke-miterlimit="4"/><path stroke-linecap="butt" transform="matrix(0.795389, 0.158792, -0.158792, 0.795389, 454.78458, 36.253566)" fill="none" stroke-linejoin="miter" d="M 58.846541 161.698308 C 42.997639 161.694722 30.065294 156.497329 20.058951 146.104246 C 10.077166 135.71117 5.084995 120.545313 5.089047 100.615177 C 5.087434 80.68126 10.132563 65.584042 20.220656 55.329188 C 30.34276 45.047899 43.381629 39.90576 59.342929 39.906552 C 75.333509 39.90641 88.237568 44.962116 98.052268 55.084059 C 107.894371 65.171064 112.815657 80.473851 112.815181 100.987697 C 112.818493 121.471319 107.783702 136.718718 97.719308 146.723285 C 87.685147 156.707083 74.728503 161.695295 58.846541 161.698308 Z M 58.93217 72.411775 C 53.524842 72.410851 48.994103 74.906574 45.32484 79.89705 C 41.659366 84.857302 39.825548 91.833775 39.827166 100.820803 C 39.823126 109.779494 41.574707 116.658976 45.076243 121.455471 C 48.578722 126.256689 53.16822 128.655444 58.849458 128.650796 C 64.556197 128.650878 69.18514 126.228861 72.743848 121.373412 C 76.298776 116.523629 78.076854 109.587751 78.079025 100.5705 C 78.076481 91.529635 76.242751 84.583064 72.577833 79.730786 C 68.911982 74.849229 64.363113 72.407984 58.93217 72.411775 Z M 58.93217 72.411775 " stroke="#33a169" stroke-width="31.12578" stroke-opacity="1" stroke-miterlimit="4"/><g clip-path="url(#9d68e90593)"><path stroke-linecap="butt" transform="matrix(0.758798, 0.286503, -0.286503, 0.758798, 561.291614, 60.150022)" fill="none" stroke-linejoin="miter" d="M 6.782059 149.99139 L 6.779541 44.66023 C 6.780962 42.291639 12.50472 41.103453 23.943503 41.103583 C 35.412723 41.102516 41.147472 42.288531 41.147752 44.661629 L 41.150632 127.660864 L 67.245691 127.661194 C 69.283394 127.658853 70.7059 130.308328 71.503602 135.597804 C 71.834132 138.19112 71.999655 140.851886 72.000172 143.580102 C 71.996688 146.284088 71.833807 149.043112 71.505321 151.854367 C 70.595385 157.284106 69.118462 159.998744 67.08076 160.001085 L 14.886135 160.002127 C 12.404811 160.002087 10.434166 158.995852 8.974202 156.98342 C 7.513042 154.940553 6.782895 152.611378 6.782059 149.99139 Z M 6.782059 149.99139 " stroke="#33a169" stroke-width="31.12578" stroke-opacity="1" stroke-miterlimit="4"/></g><g clip-path="url(#ee1650ffdd)"><path stroke-linecap="butt" transform="matrix(0.717057, 0.379061, -0.379061, 0.717057, 626.665641, 85.5561)" fill="none" stroke-linejoin="miter" d="M 19.642118 130.843901 L 19.642441 70.549549 L 7.608108 70.548497 C 5.708002 70.550598 4.35394 68.123129 3.554681 63.272355 C 3.227377 60.901344 3.060349 58.472843 3.062356 55.993118 C 3.057855 53.511386 3.224827 51.086093 3.556764 48.715232 C 4.358162 43.862676 5.705659 41.434345 7.608017 41.436502 L 64.556592 41.435043 C 66.458949 41.437201 67.752671 43.863882 68.442016 48.712836 C 68.883491 51.083416 69.104351 53.510698 69.104595 55.99468 C 69.102587 58.474405 68.881784 60.900918 68.439933 63.269959 C 67.752707 68.122084 66.459041 70.549196 64.556684 70.547039 L 53.183842 70.550395 L 53.183518 130.844747 L 65.054106 130.845198 C 66.954212 130.843098 68.30426 133.283584 69.104251 138.166657 C 69.571516 140.534498 69.8074 142.959285 69.807644 145.443268 C 69.805637 147.922993 69.574067 150.349749 69.106425 152.721529 C 68.305028 157.574085 66.955279 159.998158 65.050915 160.00251 L 7.981659 160.002393 C 6.051261 159.998716 4.742514 157.57453 4.050919 152.721318 C 3.609444 150.350738 3.388584 147.923456 3.390591 145.443731 C 3.390348 142.959749 3.611151 140.533236 4.053002 138.164194 C 4.741747 133.284029 6.050194 130.843656 7.980592 130.847332 Z M 19.642118 130.843901 " stroke="#33a169" stroke-width="31.12578" stroke-opacity="1" stroke-miterlimit="4"/></g><g clip-path="url(#81e1dd1ada)"><path stroke-linecap="butt" transform="matrix(0.655462, 0.477732, -0.477732, 0.655462, 689.240273, 118.868785)" fill="none" stroke-linejoin="miter" d="M 56.906542 39.904818 C 65.148593 39.904836 72.398979 41.062671 78.657701 43.378325 C 84.9405 45.694308 88.08412 48.838186 88.085724 52.806068 C 88.087658 56.749872 86.584628 61.629656 83.579472 67.449312 C 80.599779 73.238491 78.091228 76.133597 76.050984 76.13074 C 75.498968 76.133786 74.853864 75.829228 74.10789 75.222739 C 73.366137 74.589335 71.669371 73.913007 69.020429 73.197647 C 66.372871 72.45148 64.08722 72.079209 62.156745 72.079779 C 55.624573 72.079064 50.341877 74.397741 46.320333 79.027299 C 42.318975 83.660023 40.318598 90.743794 40.32204 100.282503 C 40.321589 109.824048 42.374786 116.909313 46.48163 121.538298 C 50.619282 126.168667 55.843368 128.48751 62.154945 128.488097 C 64.747205 128.487909 67.657422 128.130829 70.882757 127.412965 C 74.105585 126.667132 76.396153 125.623409 77.745952 124.270121 C 77.966674 124.049653 78.408456 123.936245 79.070243 123.936627 C 79.762836 123.938392 81.043096 125.204348 82.916696 127.742276 C 84.790295 130.280204 86.514232 133.61852 88.08567 137.753331 C 89.658492 141.857336 90.444301 145.045068 90.445208 147.303071 C 90.442665 151.71498 87.053066 155.21648 80.26968 157.806514 C 73.513209 160.400769 65.505833 161.695756 56.24366 161.694309 C 41.327805 161.695493 29.073163 156.443557 19.479735 145.938502 C 9.882416 135.436283 5.088428 120.616713 5.087152 101.481574 C 5.088712 82.350327 10.022294 67.312192 19.891788 56.364332 C 29.789582 45.389887 42.128427 39.906922 56.906542 39.904818 Z M 56.906542 39.904818 " stroke="#33a169" stroke-width="31.12578" stroke-opacity="1" stroke-miterlimit="4"/></g><g fill="#ffffff" fill-opacity="1"><g transform="translate(108.475839, 270.124611)"><g><path d="M 65.0625 -50.25 C 66.175781 -48.6875 63.234375 -45.398438 56.234375 -40.390625 C 49.234375 -35.378906 45.035156 -33.226562 43.640625 -33.9375 L 0.03125 -55.4375 L 24.890625 -20.671875 C 25.847656 -19.335938 22.882812 -16.207031 16 -11.28125 C 9.113281 -6.351562 5.191406 -4.554688 4.234375 -5.890625 L -49.234375 -80.65625 C -50.035156 -81.769531 -47.5 -84.429688 -41.625 -88.640625 C -39.3125 -90.296875 -36.460938 -92.019531 -33.078125 -93.8125 C -29.691406 -95.613281 -27.265625 -96.195312 -25.796875 -95.5625 L 16.71875 -73.953125 L -8.390625 -109.03125 C -9.398438 -110.445312 -6.445312 -113.628906 0.46875 -118.578125 C 7.394531 -123.535156 11.363281 -125.304688 12.375 -123.890625 Z M 65.0625 -50.25 "/></g></g></g><g fill="#ffffff" fill-opacity="1"><g transform="translate(173.605417, 222.723891)"><g><path d="M 7.5 -106.5625 C 6.726562 -108.21875 10.84375 -111.140625 19.84375 -115.328125 C 28.851562 -119.523438 33.742188 -120.796875 34.515625 -119.140625 L 61.15625 -61.96875 C 65.09375 -53.5 65.28125 -45.175781 61.71875 -37 C 58.15625 -28.820312 51.035156 -22.25 40.359375 -17.28125 C 29.691406 -12.3125 19.726562 -11.03125 10.46875 -13.4375 C 1.21875 -15.851562 -5.585938 -21.75 -9.953125 -31.125 L -35.65625 -86.296875 C -36.425781 -87.953125 -32.304688 -90.878906 -23.296875 -95.078125 C -14.285156 -99.273438 -9.394531 -100.546875 -8.625 -98.890625 L 17.53125 -42.71875 C 18.3125 -41.0625 19.804688 -40.140625 22.015625 -39.953125 C 24.296875 -39.816406 26.429688 -40.210938 28.421875 -41.140625 C 30.421875 -42.066406 32.015625 -43.363281 33.203125 -45.03125 C 34.398438 -46.695312 34.570312 -48.441406 33.71875 -50.265625 Z M 7.5 -106.5625 "/></g></g></g><g fill="#ffffff" fill-opacity="1"><g transform="translate(244.950662, 189.582645)"><g><path d="M 45.84375 -15.078125 C 46.332031 -13.304688 42.207031 -11.203125 33.46875 -8.765625 C 24.738281 -6.328125 20.128906 -5.992188 19.640625 -7.765625 L 1.109375 -74.1875 L -14.765625 -69.765625 C -16.253906 -69.347656 -17.878906 -71.078125 -19.640625 -74.953125 C -20.441406 -76.828125 -21.125 -78.773438 -21.6875 -80.796875 C -22.257812 -82.828125 -22.6875 -84.851562 -22.96875 -86.875 C -23.46875 -91.101562 -22.972656 -93.425781 -21.484375 -93.84375 L 36.09375 -109.90625 C 37.59375 -110.320312 39.210938 -108.59375 40.953125 -104.71875 C 41.765625 -102.84375 42.453125 -100.890625 43.015625 -98.859375 C 43.585938 -96.835938 44.007812 -94.816406 44.28125 -92.796875 C 44.800781 -88.566406 44.3125 -86.242188 42.8125 -85.828125 L 27.3125 -81.5 Z M 45.84375 -15.078125 "/></g></g></g><g fill="#ffffff" fill-opacity="1"><g transform="translate(304.090205, 171.98368)"><g><path d="M 32.671875 -5.671875 C 32.835938 -4.210938 28.601562 -2.988281 19.96875 -2 C 11.226562 -1 6.78125 -1.179688 6.625 -2.546875 L -3.546875 -91.546875 C -3.910156 -94.734375 -2.410156 -96.519531 0.953125 -96.90625 L 27.015625 -99.875 C 50.953125 -102.613281 63.988281 -94.660156 66.125 -76.015625 C 66.769531 -70.359375 66.265625 -65.109375 64.609375 -60.265625 C 62.953125 -55.421875 60.273438 -51.40625 56.578125 -48.21875 L 77.046875 -21.53125 C 76.578125 -19.257812 74.5 -16.484375 70.8125 -13.203125 C 65.800781 -8.660156 61.519531 -6.1875 57.96875 -5.78125 C 54.414062 -5.375 51.628906 -6.347656 49.609375 -8.703125 L 33.375 -37.140625 L 29.125 -36.65625 Z M 24.734375 -75.15625 L 27.078125 -54.6875 L 27.765625 -54.765625 C 36.410156 -55.742188 40.320312 -59.820312 39.5 -67 C 39.125 -70.28125 38.003906 -72.617188 36.140625 -74.015625 C 34.273438 -75.421875 31.429688 -75.910156 27.609375 -75.484375 Z M 24.734375 -75.15625 "/></g></g></g><g fill="#ffffff" fill-opacity="1"><g transform="translate(377.796263, 163.86916)"><g><path d="M 16.71875 -23.0625 L 18.390625 -71.953125 L 8.65625 -72.296875 C 7.09375 -72.347656 6.054688 -74.351562 5.546875 -78.3125 C 5.335938 -80.238281 5.265625 -82.207031 5.328125 -84.21875 C 5.398438 -86.238281 5.609375 -88.207031 5.953125 -90.125 C 6.722656 -94.03125 7.890625 -95.957031 9.453125 -95.90625 L 55.578125 -94.328125 C 57.140625 -94.273438 58.125 -92.273438 58.53125 -88.328125 C 58.84375 -86.390625 58.960938 -84.410156 58.890625 -82.390625 C 58.828125 -80.378906 58.570312 -78.421875 58.125 -76.515625 C 57.457031 -72.597656 56.34375 -70.664062 54.78125 -70.71875 L 45.578125 -71.03125 L 43.90625 -22.140625 L 53.53125 -21.8125 C 55.082031 -21.757812 56.113281 -19.753906 56.625 -15.796875 C 56.925781 -13.867188 57.039062 -11.898438 56.96875 -9.890625 C 56.90625 -7.878906 56.660156 -5.914062 56.234375 -4 C 55.453125 -0.0820312 54.285156 1.847656 52.734375 1.796875 L 6.453125 0.21875 C 4.898438 0.164062 3.914062 -1.835938 3.5 -5.796875 C 3.195312 -7.734375 3.078125 -9.707031 3.140625 -11.71875 C 3.210938 -13.726562 3.460938 -15.6875 3.890625 -17.59375 C 4.578125 -21.507812 5.695312 -23.441406 7.25 -23.390625 Z M 16.71875 -23.0625 "/></g></g></g><g fill="#ffffff" fill-opacity="1"><g transform="translate(429.377864, 163.515764)"><g><path d="M 46.546875 10.6875 C 33.929688 8.164062 24.472656 1.984375 18.171875 -7.859375 C 11.878906 -17.703125 10.3125 -30.550781 13.46875 -46.40625 C 16.632812 -62.257812 23.050781 -73.46875 32.71875 -80.03125 C 42.382812 -86.601562 53.570312 -88.617188 66.28125 -86.078125 C 78.988281 -83.546875 88.445312 -77.484375 94.65625 -67.890625 C 100.875 -58.296875 102.351562 -45.347656 99.09375 -29.046875 C 95.84375 -12.742188 89.425781 -1.414062 79.84375 4.9375 C 70.269531 11.289062 59.171875 13.207031 46.546875 10.6875 Z M 60.796875 -60.296875 C 56.484375 -61.160156 52.46875 -59.90625 48.75 -56.53125 C 45.039062 -53.164062 42.472656 -47.910156 41.046875 -40.765625 C 39.628906 -33.628906 39.929688 -27.875 41.953125 -23.5 C 43.984375 -19.125 47.265625 -16.484375 51.796875 -15.578125 C 56.335938 -14.671875 60.410156 -15.863281 64.015625 -19.15625 C 67.617188 -22.457031 70.132812 -27.703125 71.5625 -34.890625 C 73 -42.078125 72.640625 -47.890625 70.484375 -52.328125 C 68.335938 -56.773438 65.109375 -59.429688 60.796875 -60.296875 Z M 60.796875 -60.296875 "/></g></g></g><g fill="#ffffff" fill-opacity="1"><g transform="translate(515.451135, 181.557682)"><g><path d="M 8 -5.65625 L 38.1875 -85.59375 C 38.863281 -87.394531 43.550781 -86.648438 52.25 -83.359375 C 60.945312 -80.078125 64.957031 -77.535156 64.28125 -75.734375 L 40.5 -12.75 L 60.296875 -5.28125 C 61.835938 -4.695312 62.148438 -2.273438 61.234375 1.984375 C 60.742188 4.046875 60.109375 6.101562 59.328125 8.15625 C 58.554688 10.207031 57.640625 12.257812 56.578125 14.3125 C 54.328125 18.164062 52.4375 19.800781 50.90625 19.21875 L 11.3125 4.265625 C 9.425781 3.554688 8.21875 2.21875 7.6875 0.25 C 7.15625 -1.71875 7.257812 -3.6875 8 -5.65625 Z M 8 -5.65625 "/></g></g></g><g fill="#ffffff" fill-opacity="1"><g transform="translate(566.015882, 200.285249)"><g><path d="M 25.140625 -13.4375 L 48 -56.6875 L 39.375 -61.25 C 37.988281 -61.976562 37.941406 -64.234375 39.234375 -68.015625 C 39.878906 -69.835938 40.671875 -71.640625 41.609375 -73.421875 C 42.546875 -75.203125 43.59375 -76.878906 44.75 -78.453125 C 47.144531 -81.628906 49.035156 -82.851562 50.421875 -82.125 L 91.234375 -60.546875 C 92.609375 -59.816406 92.613281 -57.585938 91.25 -53.859375 C 90.675781 -51.984375 89.921875 -50.15625 88.984375 -48.375 C 88.046875 -46.59375 86.960938 -44.941406 85.734375 -43.421875 C 83.410156 -40.191406 81.5625 -38.941406 80.1875 -39.671875 L 72.046875 -43.984375 L 49.1875 -0.734375 L 57.6875 3.765625 C 59.0625 4.492188 59.113281 6.75 57.84375 10.53125 C 57.269531 12.394531 56.507812 14.21875 55.5625 16 C 54.625 17.78125 53.546875 19.441406 52.328125 20.984375 C 49.910156 24.160156 48.015625 25.382812 46.640625 24.65625 L 5.703125 3.015625 C 4.328125 2.285156 4.320312 0.0546875 5.6875 -3.671875 C 6.257812 -5.554688 7.015625 -7.390625 7.953125 -9.171875 C 8.898438 -10.953125 9.984375 -12.601562 11.203125 -14.125 C 13.523438 -17.351562 15.375 -18.601562 16.75 -17.875 Z M 25.140625 -13.4375 "/></g></g></g><g fill="#ffffff" fill-opacity="1"><g transform="translate(612.803211, 223.742725)"><g><path d="M 94.671875 -51.53125 C 100.078125 -47.59375 104.28125 -43.367188 107.28125 -38.859375 C 110.289062 -34.347656 110.847656 -30.796875 108.953125 -28.203125 C 107.066406 -25.609375 103.753906 -23.125 99.015625 -20.75 C 94.273438 -18.375 91.238281 -17.671875 89.90625 -18.640625 C 89.539062 -18.910156 89.265625 -19.421875 89.078125 -20.171875 C 88.890625 -20.921875 88.101562 -22.171875 86.71875 -23.921875 C 85.332031 -25.671875 84.007812 -27.003906 82.75 -27.921875 C 78.457031 -31.054688 73.890625 -32.0625 69.046875 -30.9375 C 64.203125 -29.820312 59.5 -26.132812 54.9375 -19.875 C 50.382812 -13.625 48.351562 -7.992188 48.84375 -2.984375 C 49.332031 2.023438 51.648438 6.039062 55.796875 9.0625 C 57.492188 10.300781 59.570312 11.445312 62.03125 12.5 C 64.5 13.550781 66.503906 13.957031 68.046875 13.71875 C 68.296875 13.675781 68.640625 13.816406 69.078125 14.140625 C 69.523438 14.460938 69.75 15.898438 69.75 18.453125 C 69.757812 21.003906 69.296875 24.007812 68.359375 27.46875 C 67.429688 30.925781 66.425781 33.394531 65.34375 34.875 C 63.25 37.757812 59.359375 38.4375 53.671875 36.90625 C 47.992188 35.375 42.117188 32.394531 36.046875 27.96875 C 26.273438 20.851562 20.753906 11.554688 19.484375 0.078125 C 18.210938 -11.390625 22.144531 -23.394531 31.28125 -35.9375 C 40.425781 -48.476562 50.851562 -55.976562 62.5625 -58.4375 C 74.28125 -60.894531 84.984375 -58.59375 94.671875 -51.53125 Z M 94.671875 -51.53125 "/></g></g></g><g clip-path="url(#4f804a2166)"><path stroke-linecap="butt" transform="matrix(0.659678, -0.471893, 0.471893, 0.659678, 28.668615, 157.925241)" fill="none" stroke-linejoin="miter" d="M 101.278255 156.278899 C 101.277726 158.647099 95.968882 159.835341 85.357328 159.835791 C 74.741856 159.833439 68.993826 158.978452 68.113238 157.270831 L 39.824536 104.460976 L 39.827073 157.104454 C 39.823973 159.145135 34.600905 160.1638 24.14835 160.16548 C 13.702513 160.166045 8.475827 159.145144 8.478927 157.104462 L 8.477762 43.79082 C 8.478372 42.109566 12.929832 41.267279 21.833257 41.270679 C 25.337408 41.272559 29.428633 41.587808 34.117568 42.218114 C 38.803157 42.828263 41.657639 43.970122 42.679328 45.654327 L 69.808437 97.841932 L 69.806275 44.659871 C 69.80889 42.512256 75.043194 41.436494 85.523741 41.437072 C 96.024446 41.434306 101.277407 42.509532 101.278709 44.659949 Z M 101.278255 156.278899 " stroke="#33a169" stroke-width="31.12578" stroke-opacity="1" stroke-miterlimit="4"/></g><g clip-path="url(#d44311e3e9)"><path stroke-linecap="butt" transform="matrix(0.735224, -0.342496, 0.342496, 0.735224, 114.501692, 98.437144)" fill="none" stroke-linejoin="miter" d="M 63.851838 44.828758 C 63.853791 42.566328 69.974034 41.437933 82.21227 41.43281 C 94.483099 41.437556 100.614188 42.566928 100.618635 44.827027 L 100.615942 122.570966 C 100.61651 134.10045 96.494317 143.496873 88.251994 150.777398 C 80.009671 158.057924 68.624062 161.695854 54.093135 161.695554 C 39.588103 161.696691 27.793048 157.944764 18.693136 150.448802 C 9.624624 142.91965 5.085882 132.772065 5.085639 120.010116 L 5.088441 44.991798 C 5.083994 42.7317 11.206271 41.59894 23.446839 41.600216 C 35.715336 41.598563 41.850791 42.729969 41.848838 44.992399 L 41.853656 121.374395 C 41.851704 123.636825 43.035062 125.441948 45.408098 126.791798 C 47.886749 128.143031 50.47812 128.818891 53.182212 128.81938 C 55.886304 128.819868 58.3383 128.198185 60.542567 126.956365 C 62.7512 125.716579 63.852344 123.854621 63.850365 121.372526 Z M 63.851838 44.828758 " stroke="#33a169" stroke-width="31.12578" stroke-opacity="1" stroke-miterlimit="4"/></g><path stroke-linecap="butt" transform="matrix(0.78124, -0.217995, 0.217995, 0.78124, 205.767023, 57.933363)" fill="none" stroke-linejoin="miter" d="M 59.4699 157.271391 C 59.46932 159.531257 53.874275 160.660064 42.67883 160.661155 C 31.513807 160.660734 25.928619 159.532263 25.929198 157.272396 L 25.929346 72.24637 L 5.584613 72.244499 C 3.679994 72.243046 2.32829 69.650842 1.529501 64.467887 C 1.200609 61.991084 1.033427 59.454403 1.032594 56.859138 C 1.033594 54.239384 1.19976 51.690718 1.532387 49.208501 C 2.328601 44.025607 3.681983 41.433214 5.581963 41.433373 L 79.276939 41.436773 C 81.207341 41.435421 82.559045 44.027625 83.328707 49.207452 C 83.690071 51.693316 83.868581 54.243158 83.867581 56.862912 C 83.869708 59.453538 83.687575 61.987748 83.330459 64.468132 C 82.558734 69.65286 81.205352 72.245253 79.276245 72.241966 L 59.470048 72.245365 Z M 59.4699 157.271391 " stroke="#33a169" stroke-width="31.12578" stroke-opacity="1" stroke-miterlimit="4"/><path stroke-linecap="butt" transform="matrix(0.805839, -0.0920976, 0.0920976, 0.805839, 285.05022, 36.398613)" fill="none" stroke-linejoin="miter" d="M 40.8171 157.644827 C 40.816276 159.433435 35.454003 160.332992 24.731921 160.329141 C 13.892813 160.331305 8.477498 159.489418 8.475862 157.807172 L 8.477191 47.348863 C 8.47679 43.407854 10.558787 41.435371 14.722638 41.436201 L 47.103796 41.433535 C 76.794317 41.433599 91.64345 53.000049 91.641623 76.131791 C 91.640924 83.136253 90.279665 89.49078 87.547729 95.199065 C 84.845048 100.905846 81.014767 105.451252 76.051005 108.844308 L 97.391602 144.410638 C 96.481638 147.113304 93.543545 150.214345 88.582107 153.71431 C 81.800066 158.596159 76.203738 161.034687 71.792574 161.034677 C 67.410668 161.033164 64.14051 159.447567 61.991671 156.278978 L 46.070631 119.184625 L 40.816499 119.180375 Z M 40.816874 71.418659 L 40.818597 96.809711 L 41.686038 96.8119 C 52.408667 96.810966 57.774639 92.358664 57.774385 83.4539 C 57.770702 79.37194 56.724448 76.353601 54.631385 74.39355 C 52.536272 72.409028 49.115866 71.417036 44.374952 71.418119 Z M 40.816874 71.418659 " stroke="#33a169" stroke-width="31.12578" stroke-opacity="1" stroke-miterlimit="4"/><path stroke-linecap="butt" transform="matrix(0.810617, 0.027526, -0.027526, 0.810617, 377.896034, 27.519535)" fill="none" stroke-linejoin="miter" d="M 19.644712 130.844385 L 19.645344 70.550808 L 7.607808 70.549962 C 5.709076 70.546973 4.354515 68.120896 3.558566 63.271239 C 3.227532 60.901964 3.058353 58.474185 3.060818 55.99239 C 3.05847 53.510757 3.226713 51.085977 3.555756 48.713564 C 4.354809 43.862753 5.708433 41.436272 7.607001 41.434448 L 64.55622 41.432992 C 66.459765 41.435818 67.751589 43.859207 68.441646 48.712459 C 68.883549 51.082788 69.105675 53.508769 69.103209 55.990565 C 69.105557 58.472197 68.884368 60.898775 68.444455 63.270135 C 67.751458 68.122163 66.455757 70.551496 64.557026 70.548507 L 53.184543 70.549172 L 53.18391 130.842749 L 65.052818 130.844502 C 66.951386 130.842677 68.306437 133.283195 69.103531 138.166545 C 69.574314 140.535893 69.806066 142.961547 69.808414 145.443179 C 69.805949 147.924975 69.575133 150.35188 69.106177 152.719407 C 68.302474 157.575194 66.953663 160.001512 65.050118 159.998686 L 7.980404 159.999415 C 6.052956 160.00222 4.741715 157.574671 4.051658 152.721419 C 3.609755 150.351089 3.392442 147.924945 3.390094 145.443313 C 3.39256 142.961517 3.613749 140.534939 4.053662 138.16358 C 4.740865 133.282835 6.050678 130.843385 7.983103 130.84523 Z M 19.644712 130.844385 " stroke="#33a169" stroke-width="31.12578" stroke-opacity="1" stroke-miterlimit="4"/><path stroke-linecap="butt" transform="matrix(0.795389, 0.158792, -0.158792, 0.795389, 450.480204, 29.602711)" fill="none" stroke-linejoin="miter" d="M 58.850528 161.69564 C 42.996903 161.692996 30.0655 156.500327 20.058215 146.10252 C 10.07643 135.709444 5.085202 120.54831 5.088311 100.613451 C 5.086698 80.679534 10.13277 65.587039 20.220863 55.332185 C 30.342024 45.046173 43.380893 39.904035 59.342193 39.904826 C 75.332773 39.904684 88.237775 44.965113 98.051532 55.082333 C 107.894578 65.174061 112.815863 80.476848 112.814445 100.985971 C 112.817757 121.469593 107.782966 136.716993 97.724238 146.72534 C 87.684411 156.705358 74.727767 161.693569 58.850528 161.69564 Z M 58.931434 72.410049 C 53.528829 72.408182 48.993367 74.904848 45.324104 79.895324 C 41.65863 84.855577 39.824812 91.83205 39.82643 100.819077 C 39.823333 109.782491 41.574914 116.661973 45.07645 121.458468 C 48.577986 126.254963 53.167484 128.653719 58.849665 128.653793 C 64.556403 128.653875 69.189127 126.226192 72.744055 121.376409 C 76.29804 116.521903 78.077061 109.590748 78.079231 100.573497 C 78.076688 91.532632 76.246737 84.580395 72.577097 79.72906 C 68.912188 74.852226 64.36332 72.410981 58.931434 72.410049 Z M 58.931434 72.410049 " stroke="#33a169" stroke-width="31.12578" stroke-opacity="1" stroke-miterlimit="4"/><g clip-path="url(#c1e981ac0e)"><path stroke-linecap="butt" transform="matrix(0.758798, 0.286503, -0.286503, 0.758798, 556.987261, 53.499171)" fill="none" stroke-linejoin="miter" d="M 6.782723 149.994319 L 6.78471 44.661459 C 6.779925 42.290063 12.503683 41.101877 23.944168 41.106512 C 35.413387 41.105446 41.148137 42.291461 41.146715 44.660053 L 41.149595 127.659288 L 67.244654 127.659618 C 69.284058 127.661782 70.704863 130.306752 71.504267 135.600734 C 71.834796 138.19405 71.998618 140.85031 72.000836 143.583031 C 72.001858 146.285317 71.83277 149.041536 71.504284 151.852791 C 70.594348 157.28253 69.119127 160.001674 67.079723 159.999509 L 14.889604 159.99885 C 12.408279 159.99881 10.433129 158.994276 8.973165 156.981845 C 7.512005 154.938977 6.781858 152.609802 6.782723 149.994319 Z M 6.782723 149.994319 " stroke="#33a169" stroke-width="31.12578" stroke-opacity="1" stroke-miterlimit="4"/></g><g clip-path="url(#f28ab43bdf)"><path stroke-linecap="butt" transform="matrix(0.717057, 0.379061, -0.379061, 0.717057, 622.361337, 78.905249)" fill="none" stroke-linejoin="miter" d="M 19.64309 130.846752 L 19.641163 70.548142 L 7.609081 70.551349 C 5.706724 70.549192 4.354912 68.12598 3.557661 63.268698 C 3.226099 60.899937 3.059071 58.471437 3.061079 55.991712 C 3.063086 53.511987 3.223549 51.084687 3.555486 48.713826 C 4.356884 43.86127 5.706632 41.437196 7.606739 41.435096 L 64.555314 41.433637 C 66.457671 41.435794 67.751393 43.862475 68.442989 48.715688 C 68.884464 51.086268 69.103073 53.509291 69.103317 55.993274 C 69.101309 58.472999 68.884764 60.89726 68.440906 63.272811 C 67.75368 68.124935 66.457763 70.54779 64.557656 70.54989 L 53.182564 70.548989 L 53.18224 130.843341 L 65.052828 130.843792 C 66.955185 130.845949 68.305233 133.286435 69.102973 138.16525 C 69.572489 140.53735 69.808373 142.962136 69.806366 145.441861 C 69.806609 147.925844 69.572789 150.348342 69.105147 152.720123 C 68.30375 157.572678 66.956252 160.00101 65.049637 160.001103 L 7.980381 160.000986 C 6.052233 160.001568 4.741236 157.573123 4.051892 152.724169 C 3.614674 150.351338 3.389557 147.926308 3.389313 145.442325 C 3.39132 142.9626 3.612124 140.536088 4.051724 138.162788 C 4.74272 133.28688 6.051167 130.846507 7.983572 130.843675 Z M 19.64309 130.846752 " stroke="#33a169" stroke-width="31.12578" stroke-opacity="1" stroke-miterlimit="4"/></g><g clip-path="url(#5474bbb604)"><path stroke-linecap="butt" transform="matrix(0.655462, 0.477732, -0.477732, 0.655462, 684.935849, 112.217927)" fill="none" stroke-linejoin="miter" d="M 56.905201 39.903529 C 65.147252 39.903547 72.397638 41.061382 78.656359 43.377036 C 84.941995 45.696911 88.085616 48.840789 88.08722 52.808671 C 88.086316 56.748583 86.583287 61.628367 83.57813 67.448023 C 80.598437 73.237202 78.089887 76.132309 76.052479 76.133343 C 75.501518 76.12966 74.852523 75.827939 74.106549 75.22145 C 73.364796 74.588046 71.66803 73.911718 69.019088 73.196358 C 66.374366 72.454083 64.085878 72.07792 62.155404 72.07849 C 55.623232 72.077775 50.344428 74.393615 46.318992 79.02601 C 42.317634 83.658734 40.320094 90.746397 40.320698 100.281214 C 40.320247 109.822759 42.373444 116.908024 46.483126 121.540901 C 50.620777 126.17127 55.842027 128.486221 62.153604 128.486808 C 64.745864 128.48662 67.65608 128.12954 70.881416 127.411676 C 74.107081 126.669735 76.398704 125.619283 77.74461 124.268832 C 77.965333 124.048364 78.409952 123.938848 79.071738 123.93923 C 79.761495 123.937104 81.044591 125.206951 82.918191 127.744879 C 84.788954 130.278915 86.512891 133.617231 88.084328 137.752042 C 89.659987 141.859939 90.442959 145.043779 90.443866 147.301782 C 90.444161 151.717583 87.051724 155.215191 80.271175 157.809117 C 73.51576 160.396644 65.504492 161.694467 56.242319 161.69302 C 41.326463 161.694204 29.071822 156.442268 19.478394 145.937213 C 9.881074 135.434994 5.087087 120.615424 5.088647 101.484177 C 5.087371 82.349038 10.020952 67.310903 19.890447 56.363043 C 29.791078 45.39249 42.127086 39.905633 56.905201 39.903529 Z M 56.905201 39.903529 " stroke="#33a169" stroke-width="31.12578" stroke-opacity="1" stroke-miterlimit="4"/></g><g fill="#ffffff" fill-opacity="1"><g transform="translate(104.171457, 263.473768)"><g><path d="M 65.0625 -50.25 C 66.175781 -48.6875 63.234375 -45.398438 56.234375 -40.390625 C 49.234375 -35.378906 45.035156 -33.226562 43.640625 -33.9375 L 0.03125 -55.4375 L 24.890625 -20.671875 C 25.847656 -19.335938 22.882812 -16.207031 16 -11.28125 C 9.113281 -6.351562 5.191406 -4.554688 4.234375 -5.890625 L -49.234375 -80.65625 C -50.035156 -81.769531 -47.5 -84.429688 -41.625 -88.640625 C -39.3125 -90.296875 -36.460938 -92.019531 -33.078125 -93.8125 C -29.691406 -95.613281 -27.265625 -96.195312 -25.796875 -95.5625 L 16.71875 -73.953125 L -8.390625 -109.03125 C -9.398438 -110.445312 -6.445312 -113.628906 0.46875 -118.578125 C 7.394531 -123.535156 11.363281 -125.304688 12.375 -123.890625 Z M 65.0625 -50.25 "/></g></g></g><g fill="#ffffff" fill-opacity="1"><g transform="translate(169.301036, 216.073033)"><g><path d="M 7.5 -106.5625 C 6.726562 -108.21875 10.84375 -111.140625 19.84375 -115.328125 C 28.851562 -119.523438 33.742188 -120.796875 34.515625 -119.140625 L 61.15625 -61.96875 C 65.09375 -53.5 65.28125 -45.175781 61.71875 -37 C 58.15625 -28.820312 51.035156 -22.25 40.359375 -17.28125 C 29.691406 -12.3125 19.726562 -11.03125 10.46875 -13.4375 C 1.21875 -15.851562 -5.585938 -21.75 -9.953125 -31.125 L -35.65625 -86.296875 C -36.425781 -87.953125 -32.304688 -90.878906 -23.296875 -95.078125 C -14.285156 -99.273438 -9.394531 -100.546875 -8.625 -98.890625 L 17.53125 -42.71875 C 18.3125 -41.0625 19.804688 -40.140625 22.015625 -39.953125 C 24.296875 -39.816406 26.429688 -40.210938 28.421875 -41.140625 C 30.421875 -42.066406 32.015625 -43.363281 33.203125 -45.03125 C 34.398438 -46.695312 34.570312 -48.441406 33.71875 -50.265625 Z M 7.5 -106.5625 "/></g></g></g><g fill="#ffffff" fill-opacity="1"><g transform="translate(240.646267, 182.931794)"><g><path d="M 45.84375 -15.078125 C 46.332031 -13.304688 42.207031 -11.203125 33.46875 -8.765625 C 24.738281 -6.328125 20.128906 -5.992188 19.640625 -7.765625 L 1.109375 -74.1875 L -14.765625 -69.765625 C -16.253906 -69.347656 -17.878906 -71.078125 -19.640625 -74.953125 C -20.441406 -76.828125 -21.125 -78.773438 -21.6875 -80.796875 C -22.257812 -82.828125 -22.6875 -84.851562 -22.96875 -86.875 C -23.46875 -91.101562 -22.972656 -93.425781 -21.484375 -93.84375 L 36.09375 -109.90625 C 37.59375 -110.320312 39.210938 -108.59375 40.953125 -104.71875 C 41.765625 -102.84375 42.453125 -100.890625 43.015625 -98.859375 C 43.585938 -96.835938 44.007812 -94.816406 44.28125 -92.796875 C 44.800781 -88.566406 44.3125 -86.242188 42.8125 -85.828125 L 27.3125 -81.5 Z M 45.84375 -15.078125 "/></g></g></g><g fill="#ffffff" fill-opacity="1"><g transform="translate(299.785838, 165.332829)"><g><path d="M 32.671875 -5.671875 C 32.835938 -4.210938 28.601562 -2.988281 19.96875 -2 C 11.226562 -1 6.78125 -1.179688 6.625 -2.546875 L -3.546875 -91.546875 C -3.910156 -94.734375 -2.410156 -96.519531 0.953125 -96.90625 L 27.015625 -99.875 C 50.953125 -102.613281 63.988281 -94.660156 66.125 -76.015625 C 66.769531 -70.359375 66.265625 -65.109375 64.609375 -60.265625 C 62.953125 -55.421875 60.273438 -51.40625 56.578125 -48.21875 L 77.046875 -21.53125 C 76.578125 -19.257812 74.5 -16.484375 70.8125 -13.203125 C 65.800781 -8.660156 61.519531 -6.1875 57.96875 -5.78125 C 54.414062 -5.375 51.628906 -6.347656 49.609375 -8.703125 L 33.375 -37.140625 L 29.125 -36.65625 Z M 24.734375 -75.15625 L 27.078125 -54.6875 L 27.765625 -54.765625 C 36.410156 -55.742188 40.320312 -59.820312 39.5 -67 C 39.125 -70.28125 38.003906 -72.617188 36.140625 -74.015625 C 34.273438 -75.421875 31.429688 -75.910156 27.609375 -75.484375 Z M 24.734375 -75.15625 "/></g></g></g><g fill="#ffffff" fill-opacity="1"><g transform="translate(373.491868, 157.218305)"><g><path d="M 16.71875 -23.0625 L 18.390625 -71.953125 L 8.65625 -72.296875 C 7.09375 -72.347656 6.054688 -74.351562 5.546875 -78.3125 C 5.335938 -80.238281 5.265625 -82.207031 5.328125 -84.21875 C 5.398438 -86.238281 5.609375 -88.207031 5.953125 -90.125 C 6.722656 -94.03125 7.890625 -95.957031 9.453125 -95.90625 L 55.578125 -94.328125 C 57.140625 -94.273438 58.125 -92.273438 58.53125 -88.328125 C 58.84375 -86.390625 58.960938 -84.410156 58.890625 -82.390625 C 58.828125 -80.378906 58.570312 -78.421875 58.125 -76.515625 C 57.457031 -72.597656 56.34375 -70.664062 54.78125 -70.71875 L 45.578125 -71.03125 L 43.90625 -22.140625 L 53.53125 -21.8125 C 55.082031 -21.757812 56.113281 -19.753906 56.625 -15.796875 C 56.925781 -13.867188 57.039062 -11.898438 56.96875 -9.890625 C 56.90625 -7.878906 56.660156 -5.914062 56.234375 -4 C 55.453125 -0.0820312 54.285156 1.847656 52.734375 1.796875 L 6.453125 0.21875 C 4.898438 0.164062 3.914062 -1.835938 3.5 -5.796875 C 3.195312 -7.734375 3.078125 -9.707031 3.140625 -11.71875 C 3.210938 -13.726562 3.460938 -15.6875 3.890625 -17.59375 C 4.578125 -21.507812 5.695312 -23.441406 7.25 -23.390625 Z M 16.71875 -23.0625 "/></g></g></g><g fill="#ffffff" fill-opacity="1"><g transform="translate(425.073488, 156.864909)"><g><path d="M 46.546875 10.6875 C 33.929688 8.164062 24.472656 1.984375 18.171875 -7.859375 C 11.878906 -17.703125 10.3125 -30.550781 13.46875 -46.40625 C 16.632812 -62.257812 23.050781 -73.46875 32.71875 -80.03125 C 42.382812 -86.601562 53.570312 -88.617188 66.28125 -86.078125 C 78.988281 -83.546875 88.445312 -77.484375 94.65625 -67.890625 C 100.875 -58.296875 102.351562 -45.347656 99.09375 -29.046875 C 95.84375 -12.742188 89.425781 -1.414062 79.84375 4.9375 C 70.269531 11.289062 59.171875 13.207031 46.546875 10.6875 Z M 60.796875 -60.296875 C 56.484375 -61.160156 52.46875 -59.90625 48.75 -56.53125 C 45.039062 -53.164062 42.472656 -47.910156 41.046875 -40.765625 C 39.628906 -33.628906 39.929688 -27.875 41.953125 -23.5 C 43.984375 -19.125 47.265625 -16.484375 51.796875 -15.578125 C 56.335938 -14.671875 60.410156 -15.863281 64.015625 -19.15625 C 67.617188 -22.457031 70.132812 -27.703125 71.5625 -34.890625 C 73 -42.078125 72.640625 -47.890625 70.484375 -52.328125 C 68.335938 -56.773438 65.109375 -59.429688 60.796875 -60.296875 Z M 60.796875 -60.296875 "/></g></g></g><g fill="#ffffff" fill-opacity="1"><g transform="translate(511.146783, 174.906831)"><g><path d="M 8 -5.65625 L 38.1875 -85.59375 C 38.863281 -87.394531 43.550781 -86.648438 52.25 -83.359375 C 60.945312 -80.078125 64.957031 -77.535156 64.28125 -75.734375 L 40.5 -12.75 L 60.296875 -5.28125 C 61.835938 -4.695312 62.148438 -2.273438 61.234375 1.984375 C 60.742188 4.046875 60.109375 6.101562 59.328125 8.15625 C 58.554688 10.207031 57.640625 12.257812 56.578125 14.3125 C 54.328125 18.164062 52.4375 19.800781 50.90625 19.21875 L 11.3125 4.265625 C 9.425781 3.554688 8.21875 2.21875 7.6875 0.25 C 7.15625 -1.71875 7.257812 -3.6875 8 -5.65625 Z M 8 -5.65625 "/></g></g></g><g fill="#ffffff" fill-opacity="1"><g transform="translate(561.711578, 193.634398)"><g><path d="M 25.140625 -13.4375 L 48 -56.6875 L 39.375 -61.25 C 37.988281 -61.976562 37.941406 -64.234375 39.234375 -68.015625 C 39.878906 -69.835938 40.671875 -71.640625 41.609375 -73.421875 C 42.546875 -75.203125 43.59375 -76.878906 44.75 -78.453125 C 47.144531 -81.628906 49.035156 -82.851562 50.421875 -82.125 L 91.234375 -60.546875 C 92.609375 -59.816406 92.613281 -57.585938 91.25 -53.859375 C 90.675781 -51.984375 89.921875 -50.15625 88.984375 -48.375 C 88.046875 -46.59375 86.960938 -44.941406 85.734375 -43.421875 C 83.410156 -40.191406 81.5625 -38.941406 80.1875 -39.671875 L 72.046875 -43.984375 L 49.1875 -0.734375 L 57.6875 3.765625 C 59.0625 4.492188 59.113281 6.75 57.84375 10.53125 C 57.269531 12.394531 56.507812 14.21875 55.5625 16 C 54.625 17.78125 53.546875 19.441406 52.328125 20.984375 C 49.910156 24.160156 48.015625 25.382812 46.640625 24.65625 L 5.703125 3.015625 C 4.328125 2.285156 4.320312 0.0546875 5.6875 -3.671875 C 6.257812 -5.554688 7.015625 -7.390625 7.953125 -9.171875 C 8.898438 -10.953125 9.984375 -12.601562 11.203125 -14.125 C 13.523438 -17.351562 15.375 -18.601562 16.75 -17.875 Z M 25.140625 -13.4375 "/></g></g></g><g fill="#ffffff" fill-opacity="1"><g transform="translate(608.498787, 217.091867)"><g><path d="M 94.671875 -51.53125 C 100.078125 -47.59375 104.28125 -43.367188 107.28125 -38.859375 C 110.289062 -34.347656 110.847656 -30.796875 108.953125 -28.203125 C 107.066406 -25.609375 103.753906 -23.125 99.015625 -20.75 C 94.273438 -18.375 91.238281 -17.671875 89.90625 -18.640625 C 89.539062 -18.910156 89.265625 -19.421875 89.078125 -20.171875 C 88.890625 -20.921875 88.101562 -22.171875 86.71875 -23.921875 C 85.332031 -25.671875 84.007812 -27.003906 82.75 -27.921875 C 78.457031 -31.054688 73.890625 -32.0625 69.046875 -30.9375 C 64.203125 -29.820312 59.5 -26.132812 54.9375 -19.875 C 50.382812 -13.625 48.351562 -7.992188 48.84375 -2.984375 C 49.332031 2.023438 51.648438 6.039062 55.796875 9.0625 C 57.492188 10.300781 59.570312 11.445312 62.03125 12.5 C 64.5 13.550781 66.503906 13.957031 68.046875 13.71875 C 68.296875 13.675781 68.640625 13.816406 69.078125 14.140625 C 69.523438 14.460938 69.75 15.898438 69.75 18.453125 C 69.757812 21.003906 69.296875 24.007812 68.359375 27.46875 C 67.429688 30.925781 66.425781 33.394531 65.34375 34.875 C 63.25 37.757812 59.359375 38.4375 53.671875 36.90625 C 47.992188 35.375 42.117188 32.394531 36.046875 27.96875 C 26.273438 20.851562 20.753906 11.554688 19.484375 0.078125 C 18.210938 -11.390625 22.144531 -23.394531 31.28125 -35.9375 C 40.425781 -48.476562 50.851562 -55.976562 62.5625 -58.4375 C 74.28125 -60.894531 84.984375 -58.59375 94.671875 -51.53125 Z M 94.671875 -51.53125 "/></g></g></g></svg>